<?xml version="1.0" standalone="no"?>
<!DOCTYPE svg PUBLIC "-//W3C//DTD SVG 20010904//EN"
 "http://www.w3.org/TR/2001/REC-SVG-20010904/DTD/svg10.dtd">
<svg version="1.0" xmlns="http://www.w3.org/2000/svg"
 width="1600.000000pt" height="1600.000000pt" viewBox="0 0 1600.000000 1600.000000"
 preserveAspectRatio="xMidYMid meet">

<g transform="translate(0.000000,1600.000000) scale(0.100000,-0.100000)"
fill="#000000" stroke="none">
<path d="M12006 15840 c-245 -31 -481 -124 -667 -264 -54 -41 -209 -191 -418
-406 l-333 -341 333 -337 c184 -185 1083 -1089 1998 -2009 l1664 -1672 201
207 c110 114 264 272 342 352 165 170 244 274 318 419 112 220 151 385 151
641 0 250 -39 418 -142 625 -106 211 -85 188 -1232 1338 -586 588 -1102 1098
-1146 1133 -187 152 -404 252 -645 299 -101 19 -327 27 -424 15z"/>
<path d="M9495 13884 c-220 -211 -430 -415 -467 -452 l-68 -67 2083 -2082
2082 -2082 105 97 c58 53 276 254 484 446 l378 349 -2088 2088 c-1149 1149
-2093 2089 -2099 2088 -5 0 -190 -173 -410 -385z"/>
<path d="M7895 12253 c-247 -246 -709 -704 -1025 -1018 -316 -313 -834 -827
-1150 -1140 -316 -314 -1088 -1079 -1715 -1700 -627 -621 -1378 -1366 -1670
-1655 -313 -311 -551 -540 -582 -559 -74 -46 -172 -154 -210 -231 -19 -40
-306 -999 -749 -2500 -632 -2146 -718 -2445 -722 -2517 -11 -197 76 -385 231
-500 78 -58 141 -86 241 -108 144 -32 121 -38 1382 334 3108 917 3644 1074
3711 1091 182 47 326 166 404 335 24 52 70 102 356 385 180 178 585 579 898
890 538 533 920 911 2255 2235 793 786 1610 1596 2341 2322 l626 621 -444 444
-444 443 -3317 -3323 -3317 -3324 -1305 -379 c-718 -209 -1318 -382 -1335
-385 -28 -5 -48 13 -312 278 l-281 283 407 1390 408 1390 1759 1755 c967 965
2445 2440 3284 3277 l1525 1523 -395 395 c-217 217 -397 395 -400 395 -3 0
-207 -201 -455 -447z"/>
<path d="M7355 8802 c-3423 -3431 -4196 -4210 -4196 -4218 0 -5 212 -54 471
-109 258 -56 472 -104 476 -107 3 -3 32 -185 64 -404 76 -506 70 -476 81 -472
5 2 687 680 1516 1508 830 828 2325 2321 3323 3317 l1816 1812 -556 556 c-305
305 -557 555 -560 555 -3 0 -1099 -1097 -2435 -2438z"/>
</g>
</svg>
